<?xml version="1.0" encoding="UTF-8" standalone="no"?>
<!-- Created with Inkscape (http://www.inkscape.org/) -->

<svg
   xmlns:dc="http://purl.org/dc/elements/1.1/"
   xmlns:cc="http://creativecommons.org/ns#"
   xmlns:rdf="http://www.w3.org/1999/02/22-rdf-syntax-ns#"
   xmlns:svg="http://www.w3.org/2000/svg"
   xmlns="http://www.w3.org/2000/svg"
   xmlns:xlink="http://www.w3.org/1999/xlink"
   xmlns:sodipodi="http://sodipodi.sourceforge.net/DTD/sodipodi-0.dtd"
   xmlns:inkscape="http://www.inkscape.org/namespaces/inkscape"
   width="210mm"
   height="297mm"
   id="svg13902"
   version="1.1"
   inkscape:version="0.48.2 r9819"
   sodipodi:docname="FilterError.svg">
  <defs
     id="defs13904">
    <linearGradient
       inkscape:collect="always"
       xlink:href="#linearGradient9395-8-2"
       id="linearGradient9401-8-0"
       x1="134.65625"
       y1="34.16301"
       x2="142.59761"
       y2="34.16301"
       gradientUnits="userSpaceOnUse" />
    <linearGradient
       inkscape:collect="always"
       id="linearGradient9395-8-2">
      <stop
         style="stop-color:#000000;stop-opacity:1;"
         offset="0"
         id="stop9397-4-9" />
      <stop
         style="stop-color:#000000;stop-opacity:0;"
         offset="1"
         id="stop9399-1-1" />
    </linearGradient>
    <linearGradient
       inkscape:collect="always"
       xlink:href="#linearGradient9395-5"
       id="linearGradient9401-86"
       x1="134.65625"
       y1="34.16301"
       x2="142.59761"
       y2="34.16301"
       gradientUnits="userSpaceOnUse" />
    <linearGradient
       inkscape:collect="always"
       id="linearGradient9395-5">
      <stop
         style="stop-color:#000000;stop-opacity:1;"
         offset="0"
         id="stop9397-8" />
      <stop
         style="stop-color:#000000;stop-opacity:0;"
         offset="1"
         id="stop9399-4" />
    </linearGradient>
    <marker
       inkscape:stockid="DotS"
       orient="auto"
       refY="0"
       refX="0"
       id="DotS"
       style="overflow:visible">
      <path
         inkscape:connector-curvature="0"
         id="path4167"
         d="m -2.5,-1 c 0,2.76 -2.24,5 -5,5 -2.76,0 -5,-2.24 -5,-5 0,-2.76 2.24,-5 5,-5 2.76,0 5,2.24 5,5 z"
         style="fill-rule:evenodd;stroke:#000000;stroke-width:1pt;marker-start:none;marker-end:none"
         transform="matrix(0.2,0,0,0.2,1.48,0.2)" />
    </marker>
    <marker
       inkscape:stockid="DotS"
       orient="auto"
       refY="0"
       refX="0"
       id="marker13752"
       style="overflow:visible">
      <path
         inkscape:connector-curvature="0"
         id="path13754"
         d="m -2.5,-1 c 0,2.76 -2.24,5 -5,5 -2.76,0 -5,-2.24 -5,-5 0,-2.76 2.24,-5 5,-5 2.76,0 5,2.24 5,5 z"
         style="fill-rule:evenodd;stroke:#000000;stroke-width:1pt;marker-start:none;marker-end:none"
         transform="matrix(0.2,0,0,0.2,1.48,0.2)" />
    </marker>
    <inkscape:path-effect
       effect="spiro"
       id="path-effect4094-3-8"
       is_visible="true" />
    <marker
       inkscape:stockid="DotS"
       orient="auto"
       refY="0"
       refX="0"
       id="marker13757"
       style="overflow:visible">
      <path
         inkscape:connector-curvature="0"
         id="path13759"
         d="m -2.5,-1 c 0,2.76 -2.24,5 -5,5 -2.76,0 -5,-2.24 -5,-5 0,-2.76 2.24,-5 5,-5 2.76,0 5,2.24 5,5 z"
         style="fill-rule:evenodd;stroke:#000000;stroke-width:1pt;marker-start:none;marker-end:none"
         transform="matrix(0.2,0,0,0.2,1.48,0.2)" />
    </marker>
    <marker
       inkscape:stockid="DotS"
       orient="auto"
       refY="0"
       refX="0"
       id="marker13761"
       style="overflow:visible">
      <path
         inkscape:connector-curvature="0"
         id="path13763"
         d="m -2.5,-1 c 0,2.76 -2.24,5 -5,5 -2.76,0 -5,-2.24 -5,-5 0,-2.76 2.24,-5 5,-5 2.76,0 5,2.24 5,5 z"
         style="fill-rule:evenodd;stroke:#000000;stroke-width:1pt;marker-start:none;marker-end:none"
         transform="matrix(0.2,0,0,0.2,1.48,0.2)" />
    </marker>
    <inkscape:path-effect
       effect="spiro"
       id="path-effect4090-7-4"
       is_visible="true" />
    <marker
       inkscape:stockid="DotS"
       orient="auto"
       refY="0"
       refX="0"
       id="marker13766"
       style="overflow:visible">
      <path
         inkscape:connector-curvature="0"
         id="path13768"
         d="m -2.5,-1 c 0,2.76 -2.24,5 -5,5 -2.76,0 -5,-2.24 -5,-5 0,-2.76 2.24,-5 5,-5 2.76,0 5,2.24 5,5 z"
         style="fill-rule:evenodd;stroke:#000000;stroke-width:1pt;marker-start:none;marker-end:none"
         transform="matrix(0.2,0,0,0.2,1.48,0.2)" />
    </marker>
    <marker
       inkscape:stockid="DotS"
       orient="auto"
       refY="0"
       refX="0"
       id="marker13770"
       style="overflow:visible">
      <path
         inkscape:connector-curvature="0"
         id="path13772"
         d="m -2.5,-1 c 0,2.76 -2.24,5 -5,5 -2.76,0 -5,-2.24 -5,-5 0,-2.76 2.24,-5 5,-5 2.76,0 5,2.24 5,5 z"
         style="fill-rule:evenodd;stroke:#000000;stroke-width:1pt;marker-start:none;marker-end:none"
         transform="matrix(0.2,0,0,0.2,1.48,0.2)" />
    </marker>
    <inkscape:path-effect
       effect="spiro"
       id="path-effect4086-2-5"
       is_visible="true" />
    <marker
       inkscape:stockid="DotS"
       orient="auto"
       refY="0"
       refX="0"
       id="marker13775"
       style="overflow:visible">
      <path
         inkscape:connector-curvature="0"
         id="path13777"
         d="m -2.5,-1 c 0,2.76 -2.24,5 -5,5 -2.76,0 -5,-2.24 -5,-5 0,-2.76 2.24,-5 5,-5 2.76,0 5,2.24 5,5 z"
         style="fill-rule:evenodd;stroke:#000000;stroke-width:1pt;marker-start:none;marker-end:none"
         transform="matrix(0.2,0,0,0.2,1.48,0.2)" />
    </marker>
    <marker
       inkscape:stockid="DotS"
       orient="auto"
       refY="0"
       refX="0"
       id="marker13779"
       style="overflow:visible">
      <path
         inkscape:connector-curvature="0"
         id="path13781"
         d="m -2.5,-1 c 0,2.76 -2.24,5 -5,5 -2.76,0 -5,-2.24 -5,-5 0,-2.76 2.24,-5 5,-5 2.76,0 5,2.24 5,5 z"
         style="fill-rule:evenodd;stroke:#000000;stroke-width:1pt;marker-start:none;marker-end:none"
         transform="matrix(0.2,0,0,0.2,1.48,0.2)" />
    </marker>
    <inkscape:path-effect
       effect="spiro"
       id="path-effect4082-2-9"
       is_visible="true" />
    <marker
       inkscape:stockid="Arrow1Mend"
       orient="auto"
       refY="0"
       refX="0"
       id="Arrow1Mend"
       style="overflow:visible">
      <path
         inkscape:connector-curvature="0"
         id="path5702"
         d="M 0,0 5,-5 -12.5,0 5,5 0,0 z"
         style="fill-rule:evenodd;stroke:#000000;stroke-width:1pt;marker-start:none"
         transform="matrix(-0.4,0,0,-0.4,-4,0)" />
    </marker>
    <inkscape:path-effect
       effect="spiro"
       id="path-effect9486"
       is_visible="true" />
    <marker
       inkscape:stockid="Arrow1Mend"
       orient="auto"
       refY="0"
       refX="0"
       id="marker13787"
       style="overflow:visible">
      <path
         inkscape:connector-curvature="0"
         id="path13789"
         d="M 0,0 5,-5 -12.5,0 5,5 0,0 z"
         style="fill-rule:evenodd;stroke:#000000;stroke-width:1pt;marker-start:none"
         transform="matrix(-0.4,0,0,-0.4,-4,0)" />
    </marker>
    <inkscape:path-effect
       effect="spiro"
       id="path-effect9482"
       is_visible="true" />
    <marker
       inkscape:stockid="Arrow1Mend"
       orient="auto"
       refY="0"
       refX="0"
       id="marker13792"
       style="overflow:visible">
      <path
         inkscape:connector-curvature="0"
         id="path13794"
         d="M 0,0 5,-5 -12.5,0 5,5 0,0 z"
         style="fill-rule:evenodd;stroke:#000000;stroke-width:1pt;marker-start:none"
         transform="matrix(-0.4,0,0,-0.4,-4,0)" />
    </marker>
    <inkscape:path-effect
       effect="spiro"
       id="path-effect9478"
       is_visible="true" />
    <marker
       inkscape:stockid="Arrow1Mend"
       orient="auto"
       refY="0"
       refX="0"
       id="marker13797"
       style="overflow:visible">
      <path
         inkscape:connector-curvature="0"
         id="path13799"
         d="M 0,0 5,-5 -12.5,0 5,5 0,0 z"
         style="fill-rule:evenodd;stroke:#000000;stroke-width:1pt;marker-start:none"
         transform="matrix(-0.4,0,0,-0.4,-4,0)" />
    </marker>
    <inkscape:path-effect
       effect="spiro"
       id="path-effect9474"
       is_visible="true" />
    <linearGradient
       inkscape:collect="always"
       xlink:href="#linearGradient9395-8"
       id="linearGradient9401-8"
       x1="134.65625"
       y1="34.16301"
       x2="142.59761"
       y2="34.16301"
       gradientUnits="userSpaceOnUse" />
    <linearGradient
       inkscape:collect="always"
       id="linearGradient9395-8">
      <stop
         style="stop-color:#000000;stop-opacity:1;"
         offset="0"
         id="stop9397-4" />
      <stop
         style="stop-color:#000000;stop-opacity:0;"
         offset="1"
         id="stop9399-1" />
    </linearGradient>
    <linearGradient
       inkscape:collect="always"
       xlink:href="#linearGradient9395"
       id="linearGradient9401"
       x1="134.65625"
       y1="34.16301"
       x2="142.59761"
       y2="34.16301"
       gradientUnits="userSpaceOnUse" />
    <linearGradient
       inkscape:collect="always"
       id="linearGradient9395">
      <stop
         style="stop-color:#000000;stop-opacity:1;"
         offset="0"
         id="stop9397" />
      <stop
         style="stop-color:#000000;stop-opacity:0;"
         offset="1"
         id="stop9399" />
    </linearGradient>
    <marker
       inkscape:stockid="DotS"
       orient="auto"
       refY="0"
       refX="0"
       id="marker13810"
       style="overflow:visible">
      <path
         inkscape:connector-curvature="0"
         id="path13812"
         d="m -2.5,-1 c 0,2.76 -2.24,5 -5,5 -2.76,0 -5,-2.24 -5,-5 0,-2.76 2.24,-5 5,-5 2.76,0 5,2.24 5,5 z"
         style="fill-rule:evenodd;stroke:#000000;stroke-width:1pt;marker-start:none;marker-end:none"
         transform="matrix(0.2,0,0,0.2,1.48,0.2)" />
    </marker>
    <marker
       inkscape:stockid="DotS"
       orient="auto"
       refY="0"
       refX="0"
       id="marker13814"
       style="overflow:visible">
      <path
         inkscape:connector-curvature="0"
         id="path13816"
         d="m -2.5,-1 c 0,2.76 -2.24,5 -5,5 -2.76,0 -5,-2.24 -5,-5 0,-2.76 2.24,-5 5,-5 2.76,0 5,2.24 5,5 z"
         style="fill-rule:evenodd;stroke:#000000;stroke-width:1pt;marker-start:none;marker-end:none"
         transform="matrix(0.2,0,0,0.2,1.48,0.2)" />
    </marker>
    <inkscape:path-effect
       effect="spiro"
       id="path-effect4094-3"
       is_visible="true" />
    <marker
       inkscape:stockid="DotS"
       orient="auto"
       refY="0"
       refX="0"
       id="marker13819"
       style="overflow:visible">
      <path
         inkscape:connector-curvature="0"
         id="path13821"
         d="m -2.5,-1 c 0,2.76 -2.24,5 -5,5 -2.76,0 -5,-2.24 -5,-5 0,-2.76 2.24,-5 5,-5 2.76,0 5,2.24 5,5 z"
         style="fill-rule:evenodd;stroke:#000000;stroke-width:1pt;marker-start:none;marker-end:none"
         transform="matrix(0.2,0,0,0.2,1.48,0.2)" />
    </marker>
    <marker
       inkscape:stockid="DotS"
       orient="auto"
       refY="0"
       refX="0"
       id="marker13823"
       style="overflow:visible">
      <path
         inkscape:connector-curvature="0"
         id="path13825"
         d="m -2.5,-1 c 0,2.76 -2.24,5 -5,5 -2.76,0 -5,-2.24 -5,-5 0,-2.76 2.24,-5 5,-5 2.76,0 5,2.24 5,5 z"
         style="fill-rule:evenodd;stroke:#000000;stroke-width:1pt;marker-start:none;marker-end:none"
         transform="matrix(0.2,0,0,0.2,1.48,0.2)" />
    </marker>
    <inkscape:path-effect
       effect="spiro"
       id="path-effect4090-7"
       is_visible="true" />
    <marker
       inkscape:stockid="DotS"
       orient="auto"
       refY="0"
       refX="0"
       id="marker13828"
       style="overflow:visible">
      <path
         inkscape:connector-curvature="0"
         id="path13830"
         d="m -2.5,-1 c 0,2.76 -2.24,5 -5,5 -2.76,0 -5,-2.24 -5,-5 0,-2.76 2.24,-5 5,-5 2.76,0 5,2.24 5,5 z"
         style="fill-rule:evenodd;stroke:#000000;stroke-width:1pt;marker-start:none;marker-end:none"
         transform="matrix(0.2,0,0,0.2,1.48,0.2)" />
    </marker>
    <marker
       inkscape:stockid="DotS"
       orient="auto"
       refY="0"
       refX="0"
       id="marker13832"
       style="overflow:visible">
      <path
         inkscape:connector-curvature="0"
         id="path13834"
         d="m -2.5,-1 c 0,2.76 -2.24,5 -5,5 -2.76,0 -5,-2.24 -5,-5 0,-2.76 2.24,-5 5,-5 2.76,0 5,2.24 5,5 z"
         style="fill-rule:evenodd;stroke:#000000;stroke-width:1pt;marker-start:none;marker-end:none"
         transform="matrix(0.2,0,0,0.2,1.48,0.2)" />
    </marker>
    <inkscape:path-effect
       effect="spiro"
       id="path-effect4086-2"
       is_visible="true" />
    <marker
       inkscape:stockid="DotS"
       orient="auto"
       refY="0"
       refX="0"
       id="marker13837"
       style="overflow:visible">
      <path
         inkscape:connector-curvature="0"
         id="path13839"
         d="m -2.5,-1 c 0,2.76 -2.24,5 -5,5 -2.76,0 -5,-2.24 -5,-5 0,-2.76 2.24,-5 5,-5 2.76,0 5,2.24 5,5 z"
         style="fill-rule:evenodd;stroke:#000000;stroke-width:1pt;marker-start:none;marker-end:none"
         transform="matrix(0.2,0,0,0.2,1.48,0.2)" />
    </marker>
    <marker
       inkscape:stockid="DotS"
       orient="auto"
       refY="0"
       refX="0"
       id="marker13841"
       style="overflow:visible">
      <path
         inkscape:connector-curvature="0"
         id="path13843"
         d="m -2.5,-1 c 0,2.76 -2.24,5 -5,5 -2.76,0 -5,-2.24 -5,-5 0,-2.76 2.24,-5 5,-5 2.76,0 5,2.24 5,5 z"
         style="fill-rule:evenodd;stroke:#000000;stroke-width:1pt;marker-start:none;marker-end:none"
         transform="matrix(0.2,0,0,0.2,1.48,0.2)" />
    </marker>
    <inkscape:path-effect
       effect="spiro"
       id="path-effect4082-2"
       is_visible="true" />
  </defs>
  <sodipodi:namedview
     id="base"
     pagecolor="#ffffff"
     bordercolor="#666666"
     borderopacity="1.0"
     inkscape:pageopacity="0.0"
     inkscape:pageshadow="2"
     inkscape:zoom="1.4"
     inkscape:cx="236.04819"
     inkscape:cy="932.82665"
     inkscape:document-units="px"
     inkscape:current-layer="layer1"
     showgrid="false"
     inkscape:window-width="1316"
     inkscape:window-height="744"
     inkscape:window-x="50"
     inkscape:window-y="24"
     inkscape:window-maximized="1" />
  <metadata
     id="metadata13907">
    <rdf:RDF>
      <cc:Work
         rdf:about="">
        <dc:format>image/svg+xml</dc:format>
        <dc:type
           rdf:resource="http://purl.org/dc/dcmitype/StillImage" />
        <dc:title />
      </cc:Work>
    </rdf:RDF>
  </metadata>
  <g
     inkscape:label="Capa 1"
     inkscape:groupmode="layer"
     id="layer1">
    <path
       style="fill:#ff0000;fill-opacity:1;stroke:#ff0000;stroke-width:2;stroke-linecap:butt;stroke-linejoin:miter;stroke-miterlimit:4;stroke-opacity:1;stroke-dasharray:none;stroke-dashoffset:0;marker-start:url(#DotS);marker-mid:none;marker-end:url(#DotS)"
       d="M 274.27136,212.06814 353.20326,76.75635"
       id="path4080-6"
       inkscape:path-effect="#path-effect4082-2"
       inkscape:original-d="M 274.27136,212.06814 353.20326,76.75635"
       inkscape:connector-curvature="0" />
    <path
       style="fill:none;stroke:#00ff00;stroke-width:2;stroke-linecap:butt;stroke-linejoin:miter;stroke-miterlimit:4;stroke-opacity:1;stroke-dasharray:none;stroke-dashoffset:0;marker-start:url(#DotS);marker-mid:none;marker-end:url(#DotS)"
       d="m 379.45201,99.1298 -54.42173,79.51208"
       id="path4084-0"
       inkscape:path-effect="#path-effect4086-2"
       inkscape:original-d="m 379.45201,99.1298 -54.42173,79.51208"
       inkscape:connector-curvature="0" />
    <path
       style="fill:none;stroke:#000000;stroke-width:2;stroke-linecap:butt;stroke-linejoin:miter;stroke-miterlimit:4;stroke-opacity:1;stroke-dasharray:none;stroke-dashoffset:0;marker-start:url(#DotS);marker-mid:none;marker-end:url(#DotS)"
       d="M 407.45916,157.09576 350.4144,210.93697"
       id="path4088-8"
       inkscape:path-effect="#path-effect4090-7"
       inkscape:original-d="M 407.45916,157.09576 350.4144,210.93697"
       inkscape:connector-curvature="0" />
    <path
       style="fill:none;stroke:#0000ff;stroke-width:2;stroke-linecap:butt;stroke-linejoin:miter;stroke-miterlimit:4;stroke-opacity:1;stroke-dasharray:none;stroke-dashoffset:0;marker-start:url(#DotS);marker-mid:none;marker-end:url(#DotS)"
       d="M 301.47098,232.66865 395.89126,132.19386"
       id="path4092-2"
       inkscape:path-effect="#path-effect4094-3"
       inkscape:original-d="M 301.47098,232.66865 395.89126,132.19386"
       inkscape:connector-curvature="0" />
    <path
       sodipodi:type="arc"
       style="opacity:0.4;fill:#ff0000;fill-opacity:1;stroke:none"
       id="path3910-3"
       sodipodi:cx="158.39285"
       sodipodi:cy="128.25504"
       sodipodi:rx="24.107143"
       sodipodi:ry="24.107143"
       d="m 182.5,128.25504 a 24.107143,24.107143 0 1 1 -48.21429,0 24.107143,24.107143 0 1 1 48.21429,0 z"
       transform="matrix(2.0295735,0,0,2.0295735,32.488927,-185.10431)" />
    <path
       sodipodi:type="arc"
       style="opacity:0.4;fill:#ff0000;fill-opacity:1;stroke:none"
       id="path3910-9-8"
       sodipodi:cx="158.39285"
       sodipodi:cy="128.25504"
       sodipodi:rx="24.107143"
       sodipodi:ry="24.107143"
       d="m 182.5,128.25504 a 24.107143,24.107143 0 1 1 -48.21429,0 24.107143,24.107143 0 1 1 48.21429,0 z"
       transform="matrix(2.0295735,0,0,2.0295735,-48.519466,-47.92023)" />
    <path
       sodipodi:type="arc"
       style="opacity:0.5;fill:#00ff00;fill-opacity:1;stroke:none"
       id="path3910-9-3-2"
       sodipodi:cx="158.39285"
       sodipodi:cy="128.25504"
       sodipodi:rx="24.107143"
       sodipodi:ry="24.107143"
       d="m 182.5,128.25504 a 24.107143,24.107143 0 1 1 -48.21429,0 24.107143,24.107143 0 1 1 48.21429,0 z"
       transform="matrix(2.0295735,0,0,2.0295735,2.277236,-81.2645)" />
    <path
       sodipodi:type="arc"
       style="opacity:0.5;fill:#0000ff;fill-opacity:1;stroke:none"
       id="path3910-9-3-3-27"
       sodipodi:cx="158.39285"
       sodipodi:cy="128.25504"
       sodipodi:rx="24.107143"
       sodipodi:ry="24.107143"
       d="m 182.5,128.25504 a 24.107143,24.107143 0 1 1 -48.21429,0 24.107143,24.107143 0 1 1 48.21429,0 z"
       transform="matrix(2.0295735,0,0,2.0295735,74.545428,-127.04024)" />
    <flowRoot
       xml:space="preserve"
       id="flowRoot3904-7-4-5"
       transform="translate(184.87293,109.33789)"
       style="stroke-width:2;stroke-miterlimit:4;stroke-dasharray:none"><flowRegion
         id="flowRegion3906-1-5-0"><rect
           id="rect3908-7-0-8"
           width="32.857143"
           height="27.857143"
           x="134.28572"
           y="22.362181"
           style="baseline-shift:baseline;stroke-width:2;stroke-miterlimit:4;stroke-dasharray:none;font-family:Times;-inkscape-font-specification:Times" /></flowRegion><flowPara
         id="flowPara3912-7-0-09"
         style="font-size:15px;font-style:normal;font-weight:bold;fill:#ff0000;fill-opacity:1;stroke:none;font-family:Times;-inkscape-font-specification:Times">s<flowSpan
   style="font-size:65.00091553%;baseline-shift:sub"
   id="flowSpan9357">i</flowSpan></flowPara></flowRoot>    <flowRoot
       xml:space="preserve"
       id="flowRoot3904-7-4-5-1"
       transform="translate(224.09362,103.65922)"
       style="fill:#00ff00;fill-opacity:1;stroke-width:2;stroke-miterlimit:4;stroke-dasharray:none"><flowRegion
         id="flowRegion3906-1-5-0-3"><rect
           id="rect3908-7-0-8-0"
           width="32.857143"
           height="27.857143"
           x="134.28572"
           y="22.362181"
           style="baseline-shift:baseline;fill:#00ff00;fill-opacity:1;stroke-width:2;stroke-miterlimit:4;stroke-dasharray:none;font-family:Times;-inkscape-font-specification:Times" /></flowRegion><flowPara
         id="flowPara3912-7-0-09-2"
         style="font-size:15px;font-style:normal;font-weight:bold;fill:#00ff00;fill-opacity:1;stroke:none;font-family:Times;-inkscape-font-specification:Times">s<flowSpan
   style="font-size:65.00091553%;baseline-shift:sub"
   id="flowSpan9355">j</flowSpan></flowPara></flowRoot>    <flowRoot
       xml:space="preserve"
       id="flowRoot3904-7-4-5-5"
       transform="translate(220.41994,148.96624)"
       style="fill:#0000ff;fill-opacity:1;stroke:none"><flowRegion
         id="flowRegion3906-1-5-0-6"
         style="fill:url(#linearGradient9401);fill-opacity:1"><rect
           id="rect3908-7-0-8-3"
           width="32.857143"
           height="27.857143"
           x="134.28572"
           y="22.362181"
           style="baseline-shift:baseline;fill:#0000ff;fill-opacity:1;stroke:none;font-family:Times;-inkscape-font-specification:Times" /></flowRegion><flowPara
         id="flowPara3912-7-0-09-0"
         style="font-size:15px;font-style:normal;font-weight:bold;fill:#0000ff;fill-opacity:1;stroke:none;font-family:Times;-inkscape-font-specification:Times">s<flowSpan
   style="font-size:65.00091553%;baseline-shift:sub"
   id="flowSpan9405">k</flowSpan></flowPara></flowRoot>    <flowRoot
       xml:space="preserve"
       id="flowRoot3904-7-4-5-5-3"
       transform="translate(247.02601,158.6658)"
       style="fill:#0000ff;fill-opacity:1;stroke:none"><flowRegion
         id="flowRegion3906-1-5-0-6-1"
         style="fill:url(#linearGradient9401-8);fill-opacity:1"><rect
           id="rect3908-7-0-8-3-0"
           width="32.857143"
           height="27.857143"
           x="134.28572"
           y="22.362181"
           style="baseline-shift:baseline;fill:#0000ff;fill-opacity:1;stroke:none;font-family:Times;-inkscape-font-specification:Times" /></flowRegion><flowPara
         id="flowPara3912-7-0-09-0-5"
         style="font-size:15px;font-style:normal;font-weight:bold;fill:#000000;fill-opacity:1;stroke:none;font-family:Times;-inkscape-font-specification:Times">s<flowSpan
   style="font-size:65.00091553%;baseline-shift:sub;fill:#000000;fill-opacity:1"
   id="flowSpan9470">l</flowSpan></flowPara></flowRoot>    <path
       style="opacity:1;fill:none;stroke:#000000;stroke-width:1;stroke-linecap:butt;stroke-linejoin:miter;stroke-miterlimit:4;stroke-opacity:1;stroke-dasharray:3, 1;stroke-dashoffset:0;marker-end:url(#Arrow1Mend)"
       d="m 353.0963,77.88822 26.76905,20.20305"
       id="path9472"
       inkscape:path-effect="#path-effect9474"
       inkscape:original-d="m 353.0963,77.88822 26.76905,20.20305"
       inkscape:connector-curvature="0" />
    <path
       style="opacity:1;fill:none;stroke:#000000;stroke-width:1;stroke-linecap:butt;stroke-linejoin:miter;stroke-miterlimit:4;stroke-opacity:1;stroke-dasharray:3, 1;stroke-dashoffset:0;marker-end:url(#Arrow1Mend)"
       d="m 274.3044,213.24866 27.7792,19.1929"
       id="path9476"
       inkscape:path-effect="#path-effect9478"
       inkscape:original-d="m 274.3044,213.24866 27.7792,19.1929"
       inkscape:connector-curvature="0" />
    <path
       style="opacity:1;fill:none;stroke:#000000;stroke-width:1;stroke-linecap:butt;stroke-linejoin:miter;stroke-miterlimit:4;stroke-opacity:1;stroke-dasharray:3, 1;stroke-dashoffset:0;marker-end:url(#Arrow1Mend)"
       d="m 397.03794,134.45676 10.6066,20.20306"
       id="path9480"
       inkscape:path-effect="#path-effect9482"
       inkscape:original-d="m 397.03794,134.45676 10.6066,20.20306"
       inkscape:connector-curvature="0" />
    <path
       style="opacity:1;fill:none;stroke:#000000;stroke-width:1;stroke-linecap:butt;stroke-linejoin:miter;stroke-miterlimit:4;stroke-opacity:1;stroke-dasharray:3, 1;stroke-dashoffset:0;marker-end:url(#Arrow1Mend)"
       d="m 325.31711,179.91363 23.73858,29.7995"
       id="path9484"
       inkscape:path-effect="#path-effect9486"
       inkscape:original-d="m 325.31711,179.91363 23.73858,29.7995"
       inkscape:connector-curvature="0" />
    <path
       style="fill:#ff0000;fill-opacity:1;stroke:#ff0000;stroke-width:2;stroke-linecap:butt;stroke-linejoin:miter;stroke-miterlimit:4;stroke-opacity:1;stroke-dasharray:none;stroke-dashoffset:0;marker-start:url(#DotS);marker-mid:none;marker-end:url(#DotS)"
       d="M 54.470518,211.90634 133.40242,76.59455"
       id="path4080-6-2"
       inkscape:path-effect="#path-effect4082-2-9"
       inkscape:original-d="M 54.470518,211.90634 133.40242,76.59455"
       inkscape:connector-curvature="0" />
    <path
       style="fill:none;stroke:#00ff00;stroke-width:2;stroke-linecap:butt;stroke-linejoin:miter;stroke-miterlimit:4;stroke-opacity:1;stroke-dasharray:none;stroke-dashoffset:0;marker-start:url(#DotS);marker-mid:none;marker-end:url(#DotS)"
       d="m 159.65115,98.968 -54.42171,79.51208"
       id="path4084-0-7"
       inkscape:path-effect="#path-effect4086-2-5"
       inkscape:original-d="m 159.65115,98.968 -54.42171,79.51208"
       inkscape:connector-curvature="0" />
    <path
       style="fill:none;stroke:#000000;stroke-width:2;stroke-linecap:butt;stroke-linejoin:miter;stroke-miterlimit:4;stroke-opacity:1;stroke-dasharray:none;stroke-dashoffset:0;marker-start:url(#DotS);marker-mid:none;marker-end:url(#DotS)"
       d="m 187.6583,156.93396 -57.04474,53.84121"
       id="path4088-8-4"
       inkscape:path-effect="#path-effect4090-7-4"
       inkscape:original-d="m 187.6583,156.93396 -57.04474,53.84121"
       inkscape:connector-curvature="0" />
    <path
       style="fill:none;stroke:#0000ff;stroke-width:2;stroke-linecap:butt;stroke-linejoin:miter;stroke-miterlimit:4;stroke-opacity:1;stroke-dasharray:none;stroke-dashoffset:0;marker-start:url(#DotS);marker-mid:none;marker-end:url(#DotS)"
       d="M 81.67014,232.50685 176.0904,132.03206"
       id="path4092-2-4"
       inkscape:path-effect="#path-effect4094-3-8"
       inkscape:original-d="M 81.67014,232.50685 176.0904,132.03206"
       inkscape:connector-curvature="0" />
    <flowRoot
       xml:space="preserve"
       id="flowRoot3904-7-4-5-8"
       transform="translate(-34.927912,109.17609)"
       style="stroke-width:2;stroke-miterlimit:4;stroke-dasharray:none"><flowRegion
         id="flowRegion3906-1-5-0-5"><rect
           id="rect3908-7-0-8-09"
           width="32.857143"
           height="27.857143"
           x="134.28572"
           y="22.362181"
           style="baseline-shift:baseline;stroke-width:2;stroke-miterlimit:4;stroke-dasharray:none;font-family:Times;-inkscape-font-specification:Times" /></flowRegion><flowPara
         id="flowPara3912-7-0-09-4"
         style="font-size:15px;font-style:normal;font-weight:bold;fill:#ff0000;fill-opacity:1;stroke:none;font-family:Times;-inkscape-font-specification:Times">s<flowSpan
   style="font-size:65.00091553%;baseline-shift:sub"
   id="flowSpan9357-8">i</flowSpan></flowPara></flowRoot>    <flowRoot
       xml:space="preserve"
       id="flowRoot3904-7-4-5-1-1"
       transform="translate(4.292778,103.49742)"
       style="fill:#00ff00;fill-opacity:1;stroke-width:2;stroke-miterlimit:4;stroke-dasharray:none"><flowRegion
         id="flowRegion3906-1-5-0-3-9"><rect
           id="rect3908-7-0-8-0-9"
           width="32.857143"
           height="27.857143"
           x="134.28572"
           y="22.362181"
           style="baseline-shift:baseline;fill:#00ff00;fill-opacity:1;stroke-width:2;stroke-miterlimit:4;stroke-dasharray:none;font-family:Times;-inkscape-font-specification:Times" /></flowRegion><flowPara
         id="flowPara3912-7-0-09-2-4"
         style="font-size:15px;font-style:normal;font-weight:bold;fill:#00ff00;fill-opacity:1;stroke:none;font-family:Times;-inkscape-font-specification:Times">s<flowSpan
   style="font-size:65.00091553%;baseline-shift:sub"
   id="flowSpan9355-1">j</flowSpan></flowPara></flowRoot>    <flowRoot
       xml:space="preserve"
       id="flowRoot3904-7-4-5-5-33"
       transform="translate(0.619098,148.80444)"
       style="fill:#0000ff;fill-opacity:1;stroke:none"><flowRegion
         id="flowRegion3906-1-5-0-6-4"
         style="fill:url(#linearGradient9401-86);fill-opacity:1"><rect
           id="rect3908-7-0-8-3-2"
           width="32.857143"
           height="27.857143"
           x="134.28572"
           y="22.362181"
           style="baseline-shift:baseline;fill:#0000ff;fill-opacity:1;stroke:none;font-family:Times;-inkscape-font-specification:Times" /></flowRegion><flowPara
         id="flowPara3912-7-0-09-0-1"
         style="font-size:15px;font-style:normal;font-weight:bold;fill:#0000ff;fill-opacity:1;stroke:none;font-family:Times;-inkscape-font-specification:Times">s<flowSpan
   style="font-size:65.00091553%;baseline-shift:sub"
   id="flowSpan9405-1">k</flowSpan></flowPara></flowRoot>    <flowRoot
       xml:space="preserve"
       id="flowRoot3904-7-4-5-5-3-0"
       transform="translate(27.225168,158.504)"
       style="fill:#0000ff;fill-opacity:1;stroke:none"><flowRegion
         id="flowRegion3906-1-5-0-6-1-7"
         style="fill:url(#linearGradient9401-8-0);fill-opacity:1"><rect
           id="rect3908-7-0-8-3-0-5"
           width="32.857143"
           height="27.857143"
           x="134.28572"
           y="22.362181"
           style="baseline-shift:baseline;fill:#0000ff;fill-opacity:1;stroke:none;font-family:Times;-inkscape-font-specification:Times" /></flowRegion><flowPara
         id="flowPara3912-7-0-09-0-5-6"
         style="font-size:15px;font-style:normal;font-weight:bold;fill:#000000;fill-opacity:1;stroke:none;font-family:Times;-inkscape-font-specification:Times">s<flowSpan
   style="font-size:65.00091553%;baseline-shift:sub;fill:#000000;fill-opacity:1"
   id="flowSpan9470-8">l</flowSpan></flowPara></flowRoot>  </g>
</svg>
