P2
# CREATOR: GIMP PNM Filter Version 1.1
80 60
255
45
45
46
46
46
46
46
44
43
44
45
44
45
45
46
45
45
43
41
40
41
44
46
47
48
50
53
55
55
54
54
55
55
55
55
69
137
137
92
65
67
66
69
80
92
97
98
97
93
81
64
57
53
49
55
102
131
95
41
42
45
46
45
44
45
45
44
43
44
46
46
46
46
45
45
45
45
45
45
45
45
46
45
45
47
45
44
43
44
45
45
46
42
38
33
32
37
40
40
42
44
46
48
48
50
53
55
55
54
54
55
55
55
55
57
131
153
153
156
144
139
146
155
153
151
148
148
147
149
150
151
147
129
120
141
146
144
146
83
40
42
46
45
45
44
44
44
44
43
44
45
47
45
46
45
45
45
45
45
45
46
45
46
47
45
44
43
44
46
41
38
54
71
101
132
141
128
82
60
40
44
48
48
50
54
55
55
54
54
55
55
55
55
58
87
154
148
154
150
151
151
149
145
143
141
139
137
137
137
139
140
141
143
144
142
144
140
141
143
56
39
42
46
45
45
44
44
45
44
44
44
46
46
46
45
45
45
45
45
45
45
46
46
44
44
43
45
41
44
83
107
107
136
165
166
164
165
141
112
109
77
42
51
54
55
55
54
55
55
54
55
55
58
69
143
149
144
164
152
144
142
140
139
136
136
134
133
131
131
131
132
132
134
135
136
154
145
136
142
130
51
40
43
46
45
45
44
44
45
43
44
44
46
45
46
45
45
45
45
45
46
46
44
45
44
45
37
70
90
77
70
74
94
107
117
132
151
159
163
159
126
105
56
52
54
54
55
55
55
55
55
59
91
147
150
144
149
164
163
141
143
151
156
160
163
163
162
160
157
155
150
145
138
131
144
156
154
133
136
142
133
78
41
44
46
46
45
45
45
45
43
45
45
46
45
46
45
45
45
45
45
44
44
44
45
34
64
69
65
65
67
67
66
89
107
109
108
120
152
166
163
125
108
61
52
55
55
54
55
55
64
119
153
149
143
139
159
156
161
165
164
162
160
157
155
153
152
150
150
150
151
154
158
158
159
145
158
139
130
134
140
143
117
54
45
46
46
44
45
45
45
43
44
45
46
45
46
45
45
45
44
44
44
45
36
54
65
67
65
67
66
66
66
85
109
109
108
108
109
136
165
165
130
106
52
56
54
56
56
74
142
152
146
142
138
145
167
166
161
160
156
154
155
155
154
152
152
151
150
148
147
147
148
155
152
156
160
154
132
129
131
135
139
139
87
47
45
46
45
45
44
44
43
44
45
46
45
46
45
45
43
44
45
40
47
66
67
66
65
66
66
66
68
106
107
109
109
109
108
107
131
164
119
108
99
43
55
57
90
151
149
144
140
140
156
167
165
155
152
153
156
153
154
155
155
154
154
152
151
150
148
147
150
150
147
146
152
160
158
145
130
129
132
136
141
118
55
45
45
44
44
44
44
43
44
45
46
45
45
45
45
44
46
36
69
66
66
66
67
66
66
66
66
99
109
109
109
109
109
109
108
128
137
148
125
68
56
97
152
147
142
139
148
164
162
166
162
153
152
153
154
156
158
154
152
149
147
148
148
151
153
153
151
148
148
146
148
159
157
154
155
139
128
129
133
139
134
64
45
45
44
44
44
44
44
44
45
46
45
46
44
45
40
57
66
66
66
66
66
67
66
66
68
109
108
109
109
109
109
109
108
108
148
140
116
107
72
152
147
140
139
154
165
158
158
166
158
153
157
154
145
135
130
129
131
131
131
130
129
128
127
130
136
145
151
150
147
156
160
150
148
154
150
131
127
131
137
141
73
46
45
44
44
45
44
44
44
47
46
46
45
44
37
69
96
77
65
66
66
66
66
67
70
110
108
109
109
109
109
108
108
102
80
108
108
129
95
146
139
140
159
164
156
154
161
165
159
152
137
127
128
128
129
129
130
131
130
130
130
129
128
126
125
124
126
137
150
154
160
156
147
145
150
153
136
126
130
137
143
78
46
44
45
45
45
43
44
45
46
45
44
46
65
109
118
75
66
66
66
66
67
67
68
107
108
109
109
108
109
108
104
69
69
103
107
133
107
131
140
162
162
155
154
155
164
161
139
128
126
124
125
128
129
128
129
130
130
131
130
130
129
127
126
124
124
124
124
136
157
159
150
146
144
147
155
140
125
129
136
143
79
46
45
45
44
46
43
44
44
46
45
45
84
116
108
66
66
66
66
66
67
67
69
107
108
107
109
109
109
107
97
66
65
92
108
144
129
112
161
161
155
154
152
159
165
148
128
125
124
124
120
119
115
112
99
83
124
131
131
130
129
128
128
126
125
124
124
124
145
159
155
148
146
144
146
154
141
125
129
137
142
70
46
45
45
44
45
44
44
45
45
42
94
116
93
65
66
66
66
66
66
66
68
107
107
95
74
79
99
95
67
66
68
82
107
155
131
118
162
155
154
153
158
164
164
136
125
124
123
123
124
124
126
118
115
119
129
130
130
131
130
129
128
127
126
125
124
124
134
160
159
154
149
146
144
145
153
141
126
129
138
138
60
45
44
45
44
44
44
45
45
39
94
116
94
67
66
66
66
67
67
66
66
74
108
83
66
67
102
79
67
66
67
79
109
162
134
116
154
154
153
152
99
81
92
83
119
125
124
125
126
112
112
124
132
133
134
135
135
135
134
133
132
130
129
128
125
125
125
136
137
131
147
149
145
143
145
153
139
125
130
140
131
49
45
45
44
44
44
44
41
40
86
117
112
66
66
66
66
67
66
66
67
66
106
74
66
67
72
68
66
67
66
77
108
139
125
118
154
153
131
128
196
231
239
114
75
155
155
127
119
149
157
159
161
162
161
161
162
164
164
164
164
163
163
161
160
158
158
156
157
148
126
145
150
145
144
146
153
135
126
132
142
103
45
45
44
45
45
44
40
42
59
103
114
70
67
66
67
70
83
87
90
96
95
67
66
65
67
67
52
60
66
79
106
137
102
140
152
140
132
249
252
252
203
89
65
99
92
116
131
132
133
134
135
137
138
138
138
140
140
140
140
140
139
138
137
137
135
135
150
144
124
125
145
149
145
144
147
153
130
128
134
143
70
46
44
44
44
45
41
44
38
67
67
67
65
66
88
108
109
109
108
107
107
77
59
67
66
68
44
45
67
88
121
165
86
151
156
109
123
186
164
115
79
82
66
75
82
123
129
130
132
132
133
135
137
137
138
137
104
121
140
139
139
138
138
136
134
133
154
135
124
123
125
147
148
145
144
150
149
126
129
137
132
50
46
44
45
44
44
46
33
66
67
66
66
67
91
108
109
109
109
109
108
108
54
27
62
67
40
42
67
97
142
160
90
154
150
90
129
80
107
78
84
66
129
151
123
40
96
120
110
91
116
120
123
124
100
83
109
98
128
129
128
128
127
132
135
136
157
129
124
124
124
126
150
147
144
144
153
140
126
132
141
98
46
45
45
44
46
48
46
47
66
67
67
66
81
110
109
109
109
110
108
109
95
34
28
32
38
45
71
106
132
98
139
142
90
108
99
126
164
104
100
137
145
93
140
229
252
254
252
236
83
101
100
81
105
123
121
106
125
126
126
125
125
134
137
143
155
124
124
124
124
123
131
151
145
144
147
154
131
128
135
140
55
45
45
44
48
48
52
40
62
67
66
66
67
104
109
108
109
109
108
95
70
57
28
36
48
47
70
108
121
81
155
118
76
109
129
142
137
148
149
143
92
218
250
251
253
253
253
238
88
53
105
119
122
123
114
119
124
125
125
126
125
136
137
151
149
125
124
124
124
124
122
140
149
145
144
151
146
127
131
140
102
45
46
46
48
52
55
55
39
67
67
67
66
85
109
109
108
103
73
66
66
68
30
36
51
32
88
109
68
144
153
124
121
208
164
137
123
149
147
71
198
251
251
251
251
248
208
115
79
71
118
118
119
122
122
123
123
125
125
129
136
141
142
158
141
126
124
123
124
124
123
126
149
147
145
146
154
132
128
136
140
54
45
46
52
55
55
54
52
40
67
67
66
67
104
109
109
75
67
67
67
67
47
24
39
79
109
70
132
153
137
112
132
118
70
174
187
125
93
83
134
200
198
178
143
101
79
81
75
89
117
118
119
120
122
123
123
124
133
149
161
164
163
163
159
142
126
124
123
124
124
123
135
150
146
145
151
146
128
132
141
91
42
46
55
55
54
54
55
53
39
62
67
66
103
109
108
66
67
66
66
67
66
34
65
100
75
136
149
151
126
123
121
121
101
141
64
164
116
112
79
79
78
80
80
78
79
83
65
115
116
117
118
119
121
123
124
139
159
160
152
148
146
146
149
159
149
127
124
124
124
124
124
150
147
146
147
154
130
131
138
126
41
43
55
55
54
55
55
54
55
42
47
67
108
109
88
66
66
66
67
66
80
45
45
105
151
149
149
142
124
121
120
120
106
13
65
168
123
129
85
79
119
171
134
94
113
101
79
115
115
116
117
118
119
121
142
162
154
145
145
146
146
145
145
146
159
143
126
123
124
124
124
136
150
147
146
154
140
129
136
144
66
40
55
54
54
55
54
55
56
60
60
46
60
79
65
66
67
66
67
71
69
31
87
162
149
148
145
102
82
62
98
120
73
15
19
16
106
140
127
119
192
219
167
114
123
148
104
115
116
115
116
118
118
133
160
150
144
144
144
144
146
146
145
145
149
159
129
125
124
124
124
126
151
147
148
151
151
128
134
142
100
40
55
55
54
55
55
54
55
56
60
63
66
38
33
50
51
51
54
124
148
36
84
157
143
114
96
95
66
80
120
118
38
31
20
13
77
29
151
160
122
104
124
150
177
106
114
116
116
116
116
116
123
155
147
142
143
141
138
137
138
139
141
143
146
160
139
127
125
124
124
123
146
147
147
148
157
131
132
140
130
42
52
55
55
54
55
55
54
55
57
60
63
59
32
61
71
70
71
153
134
29
82
156
148
148
145
103
45
78
82
57
33
36
17
14
15
22
80
57
160
129
147
147
192
86
114
114
116
116
116
116
142
151
140
138
136
137
136
136
137
138
138
138
143
156
149
128
126
124
123
124
137
150
146
147
157
139
130
139
147
51
49
53
55
55
55
55
55
54
55
57
61
65
32
47
69
70
84
156
113
35
67
155
150
149
123
77
85
95
68
27
23
27
27
14
13
15
14
43
157
141
193
193
130
122
113
114
115
116
116
123
153
140
136
132
132
134
137
136
136
137
137
138
138
153
153
129
127
125
124
124
129
152
146
147
154
146
130
137
146
79
49
49
53
55
55
54
55
55
55
55
58
61
42
52
49
70
97
156
89
39
52
152
149
114
131
124
123
104
32
31
26
33
23
15
24
91
163
200
186
165
152
146
71
146
115
115
116
116
115
142
148
136
131
131
131
133
137
136
136
136
137
138
138
150
155
129
128
126
126
124
125
151
147
146
151
152
132
137
144
98
48
48
50
54
55
54
54
55
55
55
55
59
54
37
47
69
109
155
117
45
52
115
115
146
122
122
110
40
28
26
32
29
46
122
142
115
100
90
95
105
109
112
125
151
124
116
116
116
118
153
140
132
131
132
134
136
136
136
136
137
138
139
138
151
152
129
128
127
126
124
124
149
147
147
150
155
132
137
144
114
46
47
48
50
54
55
54
54
55
55
55
55
60
63
60
62
117
153
144
75
98
117
134
132
152
88
41
28
33
31
69
98
105
85
111
125
127
127
127
126
126
126
127
145
136
116
115
116
129
153
133
131
132
135
137
136
136
136
137
137
138
139
138
156
145
128
127
126
125
124
124
146
148
146
149
157
132
136
143
125
43
46
47
49
51
54
55
54
54
55
54
55
56
60
58
64
118
153
143
82
105
125
114
184
140
27
35
33
63
84
94
114
128
129
127
127
125
126
126
126
126
127
128
137
144
116
115
117
139
147
131
132
134
136
136
136
136
137
138
138
138
138
138
160
136
127
125
124
124
124
124
146
147
146
150
159
132
133
142
134
41
43
46
48
48
52
55
55
54
55
55
54
55
56
61
64
115
152
143
88
117
131
130
141
179
191
68
73
90
119
110
108
128
127
129
127
126
126
126
126
127
128
128
132
149
117
117
118
145
143
133
135
137
136
136
137
137
138
139
138
138
136
144
158
128
126
124
124
124
124
124
145
147
147
149
158
131
132
141
137
39
41
44
47
48
49
52
55
55
54
55
55
55
55
58
53
99
151
142
93
90
114
123
137
118
78
101
125
124
123
124
127
132
127
128
129
126
126
126
127
129
128
128
130
151
119
118
118
147
145
136
136
136
136
137
138
138
138
138
138
137
136
156
143
125
124
124
124
124
124
123
146
148
147
148
156
129
131
140
136
40
40
42
45
47
48
49
53
55
55
54
55
55
55
55
58
64
137
121
94
52
62
83
105
87
128
129
125
108
98
79
90
127
127
127
127
128
127
128
128
127
128
128
132
151
119
118
119
147
148
136
135
136
137
138
138
139
138
138
137
136
144
156
128
124
124
124
124
124
123
124
149
147
146
147
154
128
131
139
131
44
40
41
42
45
47
48
50
53
55
55
54
55
55
55
55
59
105
82
37
45
47
83
115
143
112
98
113
147
167
180
183
160
120
100
127
127
128
128
127
128
128
129
137
148
119
120
121
142
153
136
136
137
137
139
138
137
137
137
136
139
159
137
124
124
124
124
124
123
124
125
151
145
143
148
152
127
130
138
119
45
44
40
40
42
46
47
48
51
54
55
55
54
55
55
55
53
43
46
40
44
101
131
155
94
111
148
147
149
148
148
148
163
191
190
107
124
128
128
127
128
129
130
146
139
120
122
122
131
161
139
137
138
139
138
138
137
136
136
137
156
145
124
124
124
124
123
123
124
124
129
150
144
143
149
146
125
130
139
114
45
46
42
40
40
42
46
47
48
51
54
55
54
55
47
37
54
66
67
47
87
121
122
153
93
148
130
114
131
116
135
148
147
149
186
179
107
128
128
128
129
131
134
155
127
123
123
123
123
151
153
138
139
138
138
136
136
136
139
156
146
125
124
124
124
123
123
124
124
123
135
147
144
143
150
139
125
132
142
102
45
46
46
43
39
41
43
47
48
48
52
55
46
42
59
65
62
55
67
61
142
162
153
152
100
132
141
196
195
194
114
149
148
149
170
175
131
131
129
130
130
135
153
139
123
123
123
123
124
129
159
154
140
138
137
136
138
149
158
140
125
124
124
124
123
124
124
124
123
121
144
144
143
142
152
130
126
135
146
78
44
45
46
45
41
40
41
44
46
48
49
28
54
66
66
66
66
69
59
124
135
162
154
152
102
119
196
195
196
196
163
132
147
137
119
116
123
153
151
148
152
155
139
123
123
123
123
124
125
125
130
151
162
157
155
158
159
148
130
124
124
123
124
123
124
124
124
122
120
125
148
142
142
144
150
126
130
138
145
53
45
44
45
45
45
41
40
41
44
47
37
21
24
32
55
67
66
82
93
138
133
154
157
151
97
139
195
195
196
195
163
122
125
104
192
196
134
128
142
153
132
124
123
123
123
123
125
125
126
126
125
124
128
137
160
142
135
143
149
146
134
124
123
124
124
123
121
120
120
138
145
140
140
148
142
126
132
141
124
44
45
45
45
45
46
44
40
40
42
31
34
46
50
53
31
38
71
66
137
140
133
141
160
153
92
117
196
196
197
196
133
146
111
160
196
195
176
130
154
158
142
136
133
131
129
130
131
130
130
131
132
133
138
145
162
156
152
141
122
127
151
138
124
124
123
122
120
120
124
148
141
140
141
152
132
129
135
144
93
45
45
44
45
44
45
46
42
37
36
42
46
47
48
50
53
29
37
43
130
145
136
131
157
155
95
130
146
196
195
173
123
141
109
177
196
196
168
79
108
140
154
163
160
156
154
153
151
152
154
156
159
161
159
147
140
124
108
123
110
107
116
155
125
123
121
120
120
120
140
143
140
140
149
148
127
131
138
145
60
45
43
45
44
45
44
46
36
31
40
40
42
46
47
48
51
35
37
53
94
149
139
133
141
160
99
133
124
126
122
119
148
149
102
165
196
194
135
70
96
110
117
124
121
139
137
140
151
140
136
141
124
116
126
107
108
123
107
108
124
119
124
154
129
120
120
120
119
130
146
140
139
143
155
134
128
133
142
112
45
44
44
44
45
45
45
31
38
46
43
39
41
43
46
48
48
44
31
56
57
140
144
136
131
154
127
121
80
89
108
137
149
156
142
81
136
126
108
56
101
69
100
101
112
129
114
114
130
112
112
128
110
109
124
107
107
123
115
122
133
119
108
153
126
120
119
119
124
145
140
140
142
152
146
126
130
138
145
64
44
44
44
43
44
44
42
38
45
45
45
41
40
41
43
46
48
49
29
54
55
95
149
140
133
137
159
98
93
104
148
132
117
169
197
96
126
93
73
82
164
211
155
97
98
101
83
73
128
111
111
127
108
109
126
124
124
126
131
108
108
124
124
149
122
120
119
122
144
141
140
142
148
152
129
127
134
142
117
43
44
44
30
34
35
35
40
45
44
46
46
45
42
40
42
44
47
42
30
50
55
58
137
145
137
131
146
127
109
97
148
153
197
200
100
155
119
81
93
89
132
114
171
92
94
122
119
97
141
127
126
139
124
123
120
124
107
106
124
108
109
132
153
130
120
119
123
144
141
140
142
146
154
135
127
132
139
141
58
44
44
46
21
15
19
46
36
44
45
44
45
45
45
41
40
42
45
28
52
50
53
55
78
149
142
135
131
150
111
93
112
187
157
103
127
132
69
82
92
80
139
139
134
78
90
85
114
102
126
110
108
121
109
107
107
124
106
107
122
142
152
146
127
119
118
125
144
141
140
142
145
154
140
126
130
137
145
87
44
44
46
46
25
24
24
26
28
33
37
46
45
46
46
44
40
40
41
34
47
49
49
53
55
109
148
140
130
86
72
79
78
108
135
158
148
102
129
74
91
88
79
98
64
69
78
81
145
163
125
108
107
117
116
113
119
137
139
151
153
140
126
120
119
119
132
145
140
141
142
146
154
141
126
129
136
143
118
46
45
47
46
46
26
25
34
43
42
44
42
34
32
37
46
46
43
40
40
30
40
47
48
50
54
58
132
146
102
106
89
92
84
98
112
116
105
92
119
94
91
91
93
61
77
93
95
63
122
149
153
154
154
156
157
159
156
146
138
129
121
120
120
120
126
142
143
140
142
142
146
154
141
126
129
134
142
126
52
45
46
45
45
45
32
42
44
44
44
44
44
42
43
39
33
34
45
42
40
30
43
46
47
48
50
54
65
139
141
72
104
85
101
73
112
134
150
102
70
85
91
91
93
56
104
71
100
88
77
128
121
121
120
120
140
155
130
123
123
120
120
119
127
140
146
140
140
142
143
149
154
137
126
129
134
141
138
58
46
46
45
46
45
45
44
44
44
44
44
44
44
44
42
43
44
44
36
35
40
37
41
43
46
47
48
51
54
72
142
95
98
129
133
136
156
138
119
68
82
76
93
92
89
83
94
113
100
75
89
119
119
119
119
139
155
130
124
122
120
124
135
145
145
142
139
140
142
145
152
150
133
127
130
135
141
134
64
46
47
45
46
45
45
45
44
43
44
44
44
44
44
44
43
42
43
43
40
35
22
21
37
41
43
46
48
49
52
55
74
94
120
132
104
131
141
160
159
133
94
102
82
91
91
80
78
61
89
91
138
124
119
119
139
155
133
130
134
140
146
149
145
141
140
140
141
144
150
154
142
127
127
131
137
142
134
59
46
46
45
46
45
45
45
45
45
43
44
44
43
43
43
42
43
44
39
31
19
21
35
36
40
32
39
45
46
48
49
53
47
55
81
119
128
135
132
134
150
162
151
110
97
124
127
120
117
95
62
149
156
151
121
140
158
154
152
149
147
145
144
142
141
140
140
143
150
154
146
131
126
129
133
139
144
121
52
46
46
45
47
45
45
45
45
45
45
43
43
43
44
44
44
42
36
27
23
24
23
20
21
37
31
43
38
35
46
46
47
80
71
55
60
121
151
144
139
135
132
138
152
163
161
146
118
113
103
87
77
147
148
156
153
158
150
147
144
144
144
143
142
141
142
145
151
154
145
132
126
128
131
136
141
143
90
46
46
45
45
46
45
45
45
45
45
45
45
43
43
43
44
41
31
25
24
23
23
23
24
24
24
22
28
44
43
43
33
39
121
160
48
48
56
55
91
143
147
142
137
135
134
137
147
157
161
156
154
140
119
147
147
148
156
150
146
145
144
144
146
146
147
150
152
147
137
129
126
127
131
135
140
145
127
63
45
46
45
45
46
45
45
45
45
45
45
45
45
44
44
36
27
23
23
23
23
23
23
23
23
23
22
23
35
43
43
43
44
38
87
79
55
110
54
55
54
62
116
149
147
142
139
137
134
132
134
141
148
154
158
158
157
157
156
156
155
155
155
154
151
145
138
132
127
126
127
129
132
136
140
144
132
78
46
45
46
45
46
45
45
45
45
45
45
45
45
45
43
32
25
24
23
24
23
23
23
23
23
23
23
23
23
24
39
43
44
43
43
44
43
31
133
88
51
54
55
54
55
70
118
151
147
146
141
136
135
132
131
130
130
132
135
137
136
134
134
132
128
125
123
124
125
128
130
132
135
137
142
146
127
76
47
45
45
46
46
46
45
45
45
45
45
45
45
45
45
45
27
25
26
26
26
26
25
26
26
26
26
26
26
26
25
27
44
45
45
45
44
44
44
44
40
36
48
51
55
55
54
55
55
71
109
139
149
146
143
141
139
137
135
134
134
132
130
129
130
129
128
128
129
131
134
137
139
141
145
137
106
70
45
44
44
46
46
45
46
45
45
45
45
45
45
45
45
45
45
45
